<?xml version="1.0" encoding="UTF-8"?>
<svg viewBox="0 0 900 520" xmlns="http://www.w3.org/2000/svg" font-family="Segoe UI, Arial, sans-serif">
  <defs>
    <marker id="ah" markerWidth="10" markerHeight="7" refX="10" refY="3.5" orient="auto"><polygon points="0 0, 10 3.5, 0 7" fill="#64748b"/></marker>
    <marker id="ah-r" markerWidth="10" markerHeight="7" refX="10" refY="3.5" orient="auto"><polygon points="0 0, 10 3.5, 0 7" fill="#e94560"/></marker>
    <linearGradient id="g1" x1="0" y1="0" x2="0" y2="1"><stop offset="0%" stop-color="#1e293b"/><stop offset="100%" stop-color="#0f172a"/></linearGradient>
  </defs>
  <rect width="900" height="520" rx="12" fill="url(#g1)"/>

  <!-- Browser -->
  <rect x="350" y="20" width="200" height="50" rx="8" fill="#3b82f6" opacity="0.9"/>
  <text x="450" y="50" text-anchor="middle" fill="#fff" font-size="15" font-weight="600">Browser (SPA)</text>

  <!-- Cloudflared -->
  <rect x="350" y="110" width="200" height="50" rx="8" fill="#f59e0b" opacity="0.9"/>
  <text x="450" y="130" text-anchor="middle" fill="#1e293b" font-size="13" font-weight="600">Cloudflare Tunnel</text>
  <text x="450" y="147" text-anchor="middle" fill="#1e293b" font-size="11">(cloudflared)</text>

  <!-- nginx -->
  <rect x="350" y="200" width="200" height="50" rx="8" fill="#22c55e" opacity="0.9"/>
  <text x="450" y="220" text-anchor="middle" fill="#fff" font-size="13" font-weight="600">nginx :7680</text>
  <text x="450" y="237" text-anchor="middle" fill="#d1fae5" font-size="11">reverse proxy + auth subreq</text>

  <!-- auth.py -->
  <rect x="120" y="290" width="240" height="60" rx="8" fill="#e94560" opacity="0.9"/>
  <text x="240" y="315" text-anchor="middle" fill="#fff" font-size="13" font-weight="600">auth.py :7682</text>
  <text x="240" y="332" text-anchor="middle" fill="#fecdd3" font-size="11">HTTP auth + SPA + file API + ttyd mgr</text>

  <!-- ttyd instances -->
  <rect x="520" y="290" width="240" height="60" rx="8" fill="#8b5cf6" opacity="0.9"/>
  <text x="640" y="315" text-anchor="middle" fill="#fff" font-size="13" font-weight="600">ttyd :7700+</text>
  <text x="640" y="332" text-anchor="middle" fill="#e0d4fc" font-size="11">per-user WebSocket terminal</text>

  <!-- SSH -->
  <rect x="520" y="390" width="240" height="50" rx="8" fill="#06b6d4" opacity="0.9"/>
  <text x="640" y="410" text-anchor="middle" fill="#fff" font-size="13" font-weight="600">sshd :22</text>
  <text x="640" y="427" text-anchor="middle" fill="#cffafe" font-size="11">localhost password auth</text>

  <!-- tmux + shell -->
  <rect x="520" y="470" width="240" height="35" rx="8" fill="#64748b" opacity="0.9"/>
  <text x="640" y="493" text-anchor="middle" fill="#fff" font-size="13" font-weight="600">tmux session / user shell</text>

  <!-- sshpass -->
  <rect x="120" y="390" width="240" height="50" rx="8" fill="#06b6d4" opacity="0.5"/>
  <text x="240" y="410" text-anchor="middle" fill="#cffafe" font-size="13" font-weight="600">sshpass + ssh</text>
  <text x="240" y="427" text-anchor="middle" fill="#94a3b8" font-size="11">run_as_user() for file ops</text>

  <!-- Arrows -->
  <line x1="450" y1="70" x2="450" y2="110" stroke="#64748b" stroke-width="2" marker-end="url(#ah)"/>
  <text x="460" y="95" fill="#94a3b8" font-size="10">HTTPS</text>

  <line x1="450" y1="160" x2="450" y2="200" stroke="#64748b" stroke-width="2" marker-end="url(#ah)"/>
  <text x="460" y="185" fill="#94a3b8" font-size="10">:7680</text>

  <!-- nginx to auth.py -->
  <path d="M400 250 L300 290" stroke="#e94560" stroke-width="2" marker-end="url(#ah-r)" fill="none"/>
  <text x="310" y="268" fill="#f87171" font-size="10">auth subreq</text>
  <text x="310" y="280" fill="#f87171" font-size="10">+ /api/*</text>

  <!-- nginx to ttyd -->
  <path d="M500 250 L580 290" stroke="#64748b" stroke-width="2" marker-end="url(#ah)" fill="none"/>
  <text x="530" y="268" fill="#94a3b8" font-size="10">/ut/PORT/</text>
  <text x="530" y="280" fill="#94a3b8" font-size="10">WebSocket</text>

  <!-- ttyd to ssh -->
  <line x1="640" y1="350" x2="640" y2="390" stroke="#64748b" stroke-width="2" marker-end="url(#ah)"/>
  <text x="650" y="375" fill="#94a3b8" font-size="10">sshpass</text>

  <!-- ssh to tmux -->
  <line x1="640" y1="440" x2="640" y2="470" stroke="#64748b" stroke-width="2" marker-end="url(#ah)"/>

  <!-- auth.py to sshpass -->
  <line x1="240" y1="350" x2="240" y2="390" stroke="#64748b" stroke-width="2" marker-end="url(#ah)"/>

  <!-- sshpass to sshd -->
  <path d="M360 415 L520 415" stroke="#64748b" stroke-width="1.5" stroke-dasharray="6,3" marker-end="url(#ah)" fill="none"/>
  <text x="420" y="408" fill="#94a3b8" font-size="10">file ops via SSH</text>
</svg>
