<?xml version="1.0" encoding="UTF-8"?>
<svg viewBox="0 0 900 700" xmlns="http://www.w3.org/2000/svg" font-family="Segoe UI, Arial, sans-serif">
  <defs>
    <marker id="a2" markerWidth="8" markerHeight="6" refX="8" refY="3" orient="auto"><polygon points="0 0, 8 3, 0 6" fill="#64748b"/></marker>
    <marker id="a2g" markerWidth="8" markerHeight="6" refX="8" refY="3" orient="auto"><polygon points="0 0, 8 3, 0 6" fill="#22c55e"/></marker>
    <marker id="a2r" markerWidth="8" markerHeight="6" refX="8" refY="3" orient="auto"><polygon points="0 0, 8 3, 0 6" fill="#e94560"/></marker>
  </defs>
  <rect width="900" height="700" rx="12" fill="#0f172a"/>

  <!-- Swim lanes -->
  <text x="90" y="30" text-anchor="middle" fill="#3b82f6" font-size="13" font-weight="600">Browser</text>
  <line x1="90" y1="38" x2="90" y2="690" stroke="#1e3a5f" stroke-width="1" stroke-dasharray="4,4"/>

  <text x="300" y="30" text-anchor="middle" fill="#22c55e" font-size="13" font-weight="600">nginx :7680</text>
  <line x1="300" y1="38" x2="300" y2="690" stroke="#1e3a5f" stroke-width="1" stroke-dasharray="4,4"/>

  <text x="530" y="30" text-anchor="middle" fill="#e94560" font-size="13" font-weight="600">auth.py :7682</text>
  <line x1="530" y1="38" x2="530" y2="690" stroke="#1e3a5f" stroke-width="1" stroke-dasharray="4,4"/>

  <text x="760" y="30" text-anchor="middle" fill="#8b5cf6" font-size="13" font-weight="600">ttyd :7700+</text>
  <line x1="760" y1="38" x2="760" y2="690" stroke="#1e3a5f" stroke-width="1" stroke-dasharray="4,4"/>

  <!-- Phase 1: Login -->
  <rect x="20" y="52" width="860" height="165" rx="6" fill="#1e293b" stroke="#334155" stroke-width="1"/>
  <text x="40" y="72" fill="#f59e0b" font-size="12" font-weight="600">1. LOGIN</text>

  <line x1="90" y1="90" x2="290" y2="90" stroke="#64748b" stroke-width="1.5" marker-end="url(#a2)"/>
  <text x="190" y="85" text-anchor="middle" fill="#94a3b8" font-size="10">GET /login</text>

  <line x1="300" y1="95" x2="520" y2="95" stroke="#64748b" stroke-width="1.5" marker-end="url(#a2)"/>
  <text x="410" y="90" text-anchor="middle" fill="#94a3b8" font-size="10">proxy (no auth needed)</text>

  <line x1="520" y1="100" x2="310" y2="100" stroke="#22c55e" stroke-width="1.5" marker-end="url(#a2g)"/>
  <text x="410" y="115" text-anchor="middle" fill="#86efac" font-size="10">login HTML form</text>

  <line x1="90" y1="135" x2="290" y2="135" stroke="#64748b" stroke-width="1.5" marker-end="url(#a2)"/>
  <text x="190" y="130" text-anchor="middle" fill="#94a3b8" font-size="10">POST /api/login {user, pass}</text>

  <line x1="300" y1="140" x2="520" y2="140" stroke="#64748b" stroke-width="1.5" marker-end="url(#a2)"/>

  <rect x="535" y="128" width="165" height="28" rx="4" fill="#e94560" opacity="0.3"/>
  <text x="617" y="145" text-anchor="middle" fill="#fecdd3" font-size="10">sshpass auth + spawn ttyd</text>

  <line x1="520" y1="170" x2="310" y2="170" stroke="#22c55e" stroke-width="1.5" marker-end="url(#a2g)"/>
  <text x="410" y="168" text-anchor="middle" fill="#86efac" font-size="10">Set-Cookie + port</text>

  <line x1="290" y1="195" x2="100" y2="195" stroke="#22c55e" stroke-width="1.5" marker-end="url(#a2g)"/>
  <text x="190" y="193" text-anchor="middle" fill="#86efac" font-size="10">redirect to /</text>

  <!-- Phase 2: Load SPA -->
  <rect x="20" y="225" width="860" height="130" rx="6" fill="#1e293b" stroke="#334155" stroke-width="1"/>
  <text x="40" y="245" fill="#f59e0b" font-size="12" font-weight="600">2. LOAD SPA</text>

  <line x1="90" y1="265" x2="290" y2="265" stroke="#64748b" stroke-width="1.5" marker-end="url(#a2)"/>
  <text x="190" y="260" text-anchor="middle" fill="#94a3b8" font-size="10">GET / (with cookie)</text>

  <line x1="300" y1="270" x2="520" y2="270" stroke="#e94560" stroke-width="1.5" marker-end="url(#a2r)"/>
  <text x="410" y="268" text-anchor="middle" fill="#f87171" font-size="10">auth subrequest /api/auth</text>

  <line x1="520" y1="280" x2="310" y2="280" stroke="#22c55e" stroke-width="1.5" marker-end="url(#a2g)"/>
  <text x="410" y="295" text-anchor="middle" fill="#86efac" font-size="10">200 OK (token valid)</text>

  <line x1="300" y1="310" x2="520" y2="310" stroke="#64748b" stroke-width="1.5" marker-end="url(#a2)"/>
  <text x="410" y="308" text-anchor="middle" fill="#94a3b8" font-size="10">proxy GET /app</text>

  <line x1="520" y1="335" x2="100" y2="335" stroke="#22c55e" stroke-width="1.5" marker-end="url(#a2g)"/>
  <text x="310" y="333" text-anchor="middle" fill="#86efac" font-size="10">APP_HTML (full SPA with port injected)</text>

  <!-- Phase 3: Terminal -->
  <rect x="20" y="365" width="860" height="150" rx="6" fill="#1e293b" stroke="#334155" stroke-width="1"/>
  <text x="40" y="385" fill="#f59e0b" font-size="12" font-weight="600">3. TERMINAL SESSION</text>

  <line x1="90" y1="405" x2="290" y2="405" stroke="#64748b" stroke-width="1.5" marker-end="url(#a2)"/>
  <text x="190" y="400" text-anchor="middle" fill="#94a3b8" font-size="10">iframe /ut/7701/</text>

  <line x1="300" y1="410" x2="520" y2="410" stroke="#e94560" stroke-width="1.5" marker-end="url(#a2r)"/>
  <text x="410" y="408" text-anchor="middle" fill="#f87171" font-size="10">auth subreq (verify port=7701)</text>

  <line x1="520" y1="420" x2="310" y2="420" stroke="#22c55e" stroke-width="1.5" marker-end="url(#a2g)"/>
  <text x="410" y="435" text-anchor="middle" fill="#86efac" font-size="10">200 OK</text>

  <line x1="300" y1="450" x2="750" y2="450" stroke="#8b5cf6" stroke-width="1.5" marker-end="url(#a2)"/>
  <text x="525" y="448" text-anchor="middle" fill="#c4b5fd" font-size="10">proxy + sub_filter (inject term-hook.js)</text>

  <line x1="750" y1="470" x2="100" y2="470" stroke="#8b5cf6" stroke-width="1.5" marker-end="url(#a2)"/>
  <text x="400" y="468" text-anchor="middle" fill="#c4b5fd" font-size="10">ttyd HTML + xterm.js + TERM_HOOK_JS</text>

  <line x1="90" y1="490" x2="750" y2="490" stroke="#8b5cf6" stroke-width="1.5" stroke-dasharray="4,2" marker-end="url(#a2)"/>
  <text x="400" y="505" text-anchor="middle" fill="#c4b5fd" font-size="10">WebSocket (bidirectional terminal I/O via tmux)</text>

  <!-- Phase 4: File ops -->
  <rect x="20" y="525" width="860" height="165" rx="6" fill="#1e293b" stroke="#334155" stroke-width="1"/>
  <text x="40" y="545" fill="#f59e0b" font-size="12" font-weight="600">4. FILE OPERATIONS</text>

  <line x1="90" y1="565" x2="290" y2="565" stroke="#64748b" stroke-width="1.5" marker-end="url(#a2)"/>
  <text x="190" y="560" text-anchor="middle" fill="#94a3b8" font-size="10">GET /api/files/list?path_token=...</text>

  <line x1="300" y1="570" x2="520" y2="570" stroke="#e94560" stroke-width="1.5" marker-end="url(#a2r)"/>
  <text x="410" y="568" text-anchor="middle" fill="#f87171" font-size="10">auth subreq</text>

  <line x1="520" y1="580" x2="310" y2="580" stroke="#22c55e" stroke-width="1.5" marker-end="url(#a2g)"/>

  <line x1="300" y1="600" x2="520" y2="600" stroke="#64748b" stroke-width="1.5" marker-end="url(#a2)"/>
  <text x="410" y="598" text-anchor="middle" fill="#94a3b8" font-size="10">proxy to auth.py</text>

  <rect x="535" y="605" width="165" height="28" rx="4" fill="#06b6d4" opacity="0.3"/>
  <text x="617" y="622" text-anchor="middle" fill="#67e8f9" font-size="10">run_as_user() via SSH</text>

  <line x1="520" y1="650" x2="100" y2="650" stroke="#22c55e" stroke-width="1.5" marker-end="url(#a2g)"/>
  <text x="310" y="668" text-anchor="middle" fill="#86efac" font-size="10">JSON {entries, breadcrumbs, parent_token}</text>
</svg>
