<?xml version="1.0" encoding="UTF-8"?>
<svg viewBox="0 0 800 420" xmlns="http://www.w3.org/2000/svg" font-family="Segoe UI, Arial, sans-serif">
  <rect width="800" height="420" rx="12" fill="#0f172a"/>

  <!-- Title -->
  <text x="400" y="30" text-anchor="middle" fill="#e2e8f0" font-size="14" font-weight="600">Per-User Process Isolation</text>

  <!-- User A -->
  <rect x="30" y="55" width="350" height="165" rx="8" fill="#1e293b" stroke="#3b82f6" stroke-width="1.5"/>
  <text x="205" y="75" text-anchor="middle" fill="#3b82f6" font-size="13" font-weight="600">User: alice (UID 1001)</text>

  <rect x="50" y="90" width="130" height="35" rx="5" fill="#8b5cf6" opacity="0.7"/>
  <text x="115" y="112" text-anchor="middle" fill="#fff" font-size="11">ttyd :7701</text>

  <rect x="50" y="135" width="130" height="35" rx="5" fill="#06b6d4" opacity="0.5"/>
  <text x="115" y="157" text-anchor="middle" fill="#cffafe" font-size="11">ssh alice@127.0.0.1</text>

  <rect x="50" y="180" width="310" height="30" rx="5" fill="#64748b" opacity="0.4"/>
  <text x="205" y="200" text-anchor="middle" fill="#e2e8f0" font-size="11">tmux: main (win 0, win 1, win 2...)</text>

  <rect x="200" y="90" width="160" height="80" rx="5" fill="#0f172a" stroke="#334155"/>
  <text x="280" y="108" text-anchor="middle" fill="#94a3b8" font-size="10">Browser tabs</text>
  <rect x="210" y="115" width="60" height="18" rx="3" fill="#e94560" opacity="0.5"/>
  <text x="240" y="129" text-anchor="middle" fill="#fff" font-size="9">Tab 1</text>
  <rect x="280" y="115" width="60" height="18" rx="3" fill="#e94560" opacity="0.3"/>
  <text x="310" y="129" text-anchor="middle" fill="#fff" font-size="9">Tab 2</text>
  <rect x="210" y="140" width="60" height="18" rx="3" fill="#e94560" opacity="0.3"/>
  <text x="240" y="154" text-anchor="middle" fill="#fff" font-size="9">Tab 3</text>
  <text x="280" y="160" fill="#64748b" font-size="20">...</text>

  <!-- User B -->
  <rect x="420" y="55" width="350" height="165" rx="8" fill="#1e293b" stroke="#f59e0b" stroke-width="1.5"/>
  <text x="595" y="75" text-anchor="middle" fill="#f59e0b" font-size="13" font-weight="600">User: bob (UID 1002)</text>

  <rect x="440" y="90" width="130" height="35" rx="5" fill="#8b5cf6" opacity="0.7"/>
  <text x="505" y="112" text-anchor="middle" fill="#fff" font-size="11">ttyd :7702</text>

  <rect x="440" y="135" width="130" height="35" rx="5" fill="#06b6d4" opacity="0.5"/>
  <text x="505" y="157" text-anchor="middle" fill="#cffafe" font-size="11">ssh bob@127.0.0.1</text>

  <rect x="440" y="180" width="310" height="30" rx="5" fill="#64748b" opacity="0.4"/>
  <text x="595" y="200" text-anchor="middle" fill="#e2e8f0" font-size="11">tmux: main (win 0, win 1...)</text>

  <rect x="590" y="90" width="160" height="80" rx="5" fill="#0f172a" stroke="#334155"/>
  <text x="670" y="108" text-anchor="middle" fill="#94a3b8" font-size="10">Browser tabs</text>
  <rect x="600" y="115" width="60" height="18" rx="3" fill="#e94560" opacity="0.5"/>
  <text x="630" y="129" text-anchor="middle" fill="#fff" font-size="9">Tab 1</text>
  <rect x="670" y="115" width="60" height="18" rx="3" fill="#e94560" opacity="0.3"/>
  <text x="700" y="129" text-anchor="middle" fill="#fff" font-size="9">Tab 2</text>

  <!-- Port allocation -->
  <rect x="30" y="245" width="740" height="160" rx="8" fill="#1e293b" stroke="#334155"/>
  <text x="400" y="270" text-anchor="middle" fill="#e2e8f0" font-size="13" font-weight="600">Port Allocation Pool</text>

  <rect x="60" y="285" width="80" height="30" rx="4" fill="#3b82f6" opacity="0.6"/>
  <text x="100" y="305" text-anchor="middle" fill="#fff" font-size="11">7700</text>
  <text x="100" y="330" text-anchor="middle" fill="#64748b" font-size="9">(free)</text>

  <rect x="160" y="285" width="80" height="30" rx="4" fill="#e94560" opacity="0.6"/>
  <text x="200" y="305" text-anchor="middle" fill="#fff" font-size="11">7701</text>
  <text x="200" y="330" text-anchor="middle" fill="#fecdd3" font-size="9">alice</text>

  <rect x="260" y="285" width="80" height="30" rx="4" fill="#f59e0b" opacity="0.6"/>
  <text x="300" y="305" text-anchor="middle" fill="#fff" font-size="11">7702</text>
  <text x="300" y="330" text-anchor="middle" fill="#fde68a" font-size="9">bob</text>

  <rect x="360" y="285" width="80" height="30" rx="4" fill="#3b82f6" opacity="0.6"/>
  <text x="400" y="305" text-anchor="middle" fill="#fff" font-size="11">7703</text>
  <text x="400" y="330" text-anchor="middle" fill="#64748b" font-size="9">(free)</text>

  <text x="460" y="305" fill="#64748b" font-size="18">...</text>

  <rect x="500" y="285" width="80" height="30" rx="4" fill="#3b82f6" opacity="0.6"/>
  <text x="540" y="305" text-anchor="middle" fill="#fff" font-size="11">9699</text>
  <text x="540" y="330" text-anchor="middle" fill="#64748b" font-size="9">(free)</text>

  <text x="400" y="380" text-anchor="middle" fill="#94a3b8" font-size="11">Ports 7700-9699 (2000 slots) &mdash; allocated sequentially, socket-bind tested</text>
  <text x="400" y="396" text-anchor="middle" fill="#94a3b8" font-size="11">Stored in memory: user_instances[username] = {port, proc, password}</text>
</svg>
