<?xml version="1.0" encoding="UTF-8"?>
<svg viewBox="0 0 800 300" xmlns="http://www.w3.org/2000/svg" font-family="Segoe UI, Arial, sans-serif">
  <defs>
    <marker id="a2" markerWidth="8" markerHeight="6" refX="8" refY="3" orient="auto"><polygon points="0 0, 8 3, 0 6" fill="#64748b"/></marker>
  </defs>
  <rect width="800" height="300" rx="12" fill="#0f172a"/>

  <!-- Steps -->
  <rect x="40" y="30" width="130" height="55" rx="8" fill="#22c55e" opacity="0.3" stroke="#22c55e"/>
  <text x="105" y="52" text-anchor="middle" fill="#86efac" font-size="11" font-weight="600">1. Check sshd</text>
  <text x="105" y="68" text-anchor="middle" fill="#64748b" font-size="9">pw-auth on 127.0.0.1</text>

  <rect x="200" y="30" width="130" height="55" rx="8" fill="#3b82f6" opacity="0.3" stroke="#3b82f6"/>
  <text x="265" y="52" text-anchor="middle" fill="#93c5fd" font-size="11" font-weight="600">2. nginx</text>
  <text x="265" y="68" text-anchor="middle" fill="#64748b" font-size="9">install conf + reload</text>

  <rect x="360" y="30" width="130" height="55" rx="8" fill="#e94560" opacity="0.3" stroke="#e94560"/>
  <text x="425" y="52" text-anchor="middle" fill="#fecdd3" font-size="11" font-weight="600">3. auth.py</text>
  <text x="425" y="68" text-anchor="middle" fill="#64748b" font-size="9">start/restart if stale</text>

  <rect x="520" y="30" width="130" height="55" rx="8" fill="#f59e0b" opacity="0.3" stroke="#f59e0b"/>
  <text x="585" y="52" text-anchor="middle" fill="#fde68a" font-size="11" font-weight="600">4. cloudflared</text>
  <text x="585" y="68" text-anchor="middle" fill="#64748b" font-size="9">tmux session</text>

  <rect x="680" y="30" width="90" height="55" rx="8" fill="#8b5cf6" opacity="0.3" stroke="#8b5cf6"/>
  <text x="725" y="52" text-anchor="middle" fill="#c4b5fd" font-size="11" font-weight="600">5. Report</text>
  <text x="725" y="68" text-anchor="middle" fill="#64748b" font-size="9">health checks</text>

  <!-- Arrows -->
  <line x1="170" y1="57" x2="198" y2="57" stroke="#64748b" stroke-width="1.5" marker-end="url(#a2)"/>
  <line x1="330" y1="57" x2="358" y2="57" stroke="#64748b" stroke-width="1.5" marker-end="url(#a2)"/>
  <line x1="490" y1="57" x2="518" y2="57" stroke="#64748b" stroke-width="1.5" marker-end="url(#a2)"/>
  <line x1="650" y1="57" x2="678" y2="57" stroke="#64748b" stroke-width="1.5" marker-end="url(#a2)"/>

  <!-- Health checks detail -->
  <rect x="40" y="110" width="720" height="175" rx="8" fill="#1e293b" stroke="#334155"/>
  <text x="400" y="135" text-anchor="middle" fill="#e2e8f0" font-size="13" font-weight="600">Health Check Matrix</text>

  <text x="60" y="160" fill="#22c55e" font-size="11">sshd</text>
  <text x="200" y="160" fill="#94a3b8" font-size="10">pgrep sshd + password auth config check</text>

  <text x="60" y="182" fill="#3b82f6" font-size="11">nginx</text>
  <text x="200" y="182" fill="#94a3b8" font-size="10">config diff detection + syntax test + port :7680 listening</text>

  <text x="60" y="204" fill="#e94560" font-size="11">auth.py</text>
  <text x="200" y="204" fill="#94a3b8" font-size="10">file mtime vs process start time + port :7682 + HTTP 401 from /api/auth</text>

  <text x="60" y="226" fill="#f59e0b" font-size="11">cloudflared</text>
  <text x="200" y="226" fill="#94a3b8" font-size="10">tmux session exists + pgrep cloudflared</text>

  <text x="60" y="254" fill="#8b5cf6" font-size="11">end-to-end</text>
  <text x="200" y="254" fill="#94a3b8" font-size="10">curl :7680/login (200) + curl :7682/api/auth (401) + curl https://hostname/login (200)</text>
</svg>
